<svg xmlns="http://www.w3.org/2000/svg" id="Layer_2" viewBox="0 0 478.79 478.74">
  <defs>
    <style>
      .cls-1{fill:var(--logo-circle)}.cls-3{fill:var(--logo-accent)}.cls-5{fill:var(--logo-accent-2)}
    </style>
  </defs>
  <g id="Layer_1-2">
    <path d="M61.86 78.84c1.01-1.12 2.04-2.22 3.07-3.31-1.03 1.1-2.06 2.2-3.07 3.31ZM58 83.22ZM54.25 87.68c.85-1.04 1.72-2.06 2.58-3.08-.87 1.02-1.73 2.05-2.58 3.08ZM453.75 345.92a237.684 237.684 0 0 0 18.7-51.93v-.04.04a238.015 238.015 0 0 1-18.7 51.93ZM65.83 74.56ZM474.24 285.57c-.16.8-.31 1.6-.47 2.39.16-.79.31-1.59.47-2.39ZM53.02 89.21c-.47.59-.95 1.17-1.42 1.76.47-.59.93-1.18 1.41-1.76ZM113.2 120.42c42.07 86.77 258.47 73.81 365.36 128.86.14-3.29.23-6.59.23-9.91C478.79 107.17 371.62 0 239.42 0 173.18 0 113.23 26.91 69.89 70.38c1.37-1.38 2.76-2.74 4.17-4.08 10.67 5.03 22.41 19.61 39.14 54.12ZM478.56 249.29ZM476.46 272.41c-.18 1.26-.37 2.51-.56 3.76.2-1.25.39-2.5.56-3.76ZM475.47 278.87Z" class="cls-3"/>
    <path d="M238.62 478.73c-1.41 0-2.82-.02-4.22-.05 1.4.03 2.81.04 4.22.05ZM269.58 476.84c.89-.11 1.77-.23 2.66-.35-.89.12-1.77.24-2.66.35ZM248.88 478.54l1.54-.06-1.54.06ZM259.17 477.92c.73-.06 1.46-.12 2.19-.19-.73.07-1.46.13-2.19.19ZM244.03 478.69c.53-.01 1.06-.02 1.59-.04-.53.01-1.06.03-1.59.04ZM273.75 476.28c3.16-.45 6.31-.97 9.43-1.55-3.12.58-6.27 1.09-9.43 1.55ZM263.83 477.49ZM254.66 478.25c.65-.04 1.29-.09 1.94-.14-.65.05-1.29.09-1.94.14ZM239.38 478.74h.25-.24ZM474.24 285.57c.23-1.19.46-2.38.68-3.58.19-1.04.37-2.08.54-3.13.15-.9.3-1.8.44-2.7.19-1.25.39-2.5.56-3.76l.21-1.59c.94-7.08 1.58-14.26 1.88-21.52v-.02c-106.89-55.04-323.29-42.09-365.36-128.86C96.46 85.9 84.72 71.32 74.05 66.29a267.43 267.43 0 0 0-4.17 4.08c-.2.2-.4.41-.6.61a233.05 233.05 0 0 0-3.47 3.57l-.9.96c-1.03 1.1-2.06 2.2-3.07 3.31-.36.4-.71.8-1.07 1.21-.94 1.05-1.87 2.1-2.79 3.17l-1.17 1.38c-.87 1.02-1.73 2.05-2.58 3.08-.41.5-.82 1.02-1.23 1.52-.47.58-.94 1.17-1.41 1.76 15.2 9.28 33 26.18 45.91 70.35 18 71 109 68.55 109 68.55s57.13-15.13 228.14 147.81c-35.15 49.58-88.68 85.2-150.68 96.9 74.58-14.05 136.93-62.71 169.76-128.66a237.684 237.684 0 0 0 18.7-51.93v-.04c.46-1.98.9-3.98 1.31-5.98.16-.79.31-1.59.47-2.39Z" class="cls-5"/>
    <path d="M434.67 377.68C263.66 214.74 206.53 229.87 206.53 229.87s-91 2.45-109-68.55c-12.91-44.17-30.71-61.07-45.91-70.35-.01 0-.02-.01-.03-.02C19.28 131.74 0 183.3 0 239.37c0 18.55 2.18 36.59 6.18 53.93 24.11 104.66 116.79 183.12 228.23 185.39 1.4.03 2.81.04 4.22.05h1c1.47 0 2.94-.02 4.41-.05.53-.01 1.06-.02 1.59-.04 1.09-.03 2.17-.06 3.26-.11l1.54-.06c1.42-.06 2.83-.14 4.24-.23.65-.04 1.29-.09 1.94-.14.86-.06 1.72-.13 2.57-.2.73-.06 1.46-.12 2.19-.19l2.48-.24a238.461 238.461 0 0 0 5.74-.65c.89-.11 1.77-.23 2.66-.35.51-.07 1.01-.14 1.52-.22 3.16-.46 6.31-.97 9.43-1.55.27-.05.54-.1.8-.15 62-11.7 115.53-47.32 150.68-96.9Z" style="fill:#090822"/>
    <path d="M353.88 305.04c-4.2 0-8.15 1.01-11.67 2.77l-17.04-17.04v-16.13c22.01 4.37 40.37 3.02 49.15-16.45 17.86-39.61-42.51-39.06-42.51-95.36 0-47.76-41.48-92.66-92.66-92.66h-.18c-51.17 0-92.66 44.9-92.66 92.66 0 56.31-61.57 61.93-42.51 95.36 10.39 18.22 28.6 19.77 49.87 15.85v16.49l-17.04 17.04a25.995 25.995 0 0 0-11.67-2.77c-14.48 0-26.22 11.74-26.22 26.23s11.74 26.23 26.22 26.23 26.23-11.74 26.23-26.23c0-4.22-1.02-8.19-2.79-11.72l19.46-19.46a8.301 8.301 0 0 0 2.43-5.88V270.2c4.32-1.15 8.7-2.39 13.12-3.65 3.32-.95 6.67-1.47 10.04-1.71v41.71l-27.7 23.82a8.297 8.297 0 0 0-2.89 6.3v20.59c-10.41 3.48-17.92 13.28-17.92 24.86 0 14.48 11.74 26.23 26.23 26.23s26.22-11.74 26.22-26.23c0-11.58-7.51-21.38-17.92-24.86v-16.78l27.7-23.82a8.297 8.297 0 0 0 2.89-6.3v-44.83c7.14.89 14.2 2.22 21 2.95v88.8c-10.38 3.49-17.87 13.28-17.87 24.84 0 14.48 11.74 26.23 26.23 26.23s26.22-11.74 26.22-26.23c0-11.6-7.53-21.42-17.97-24.88V268.5c6.85-.7 13.93-2.02 21.1-2.86v44.96a8.33 8.33 0 0 0 2.89 6.3l27.7 23.82v16.78c-10.41 3.48-17.92 13.28-17.92 24.86 0 14.48 11.74 26.23 26.22 26.23s26.23-11.74 26.23-26.23c0-11.58-7.51-21.38-17.92-24.86v-20.59a8.33 8.33 0 0 0-2.89-6.3l-27.7-23.82V265.1c3.38.27 6.77.83 10.14 1.81 4.39 1.28 8.74 2.54 13.02 3.72v23.6c0 2.2.88 4.32 2.43 5.87l19.46 19.46c-1.77 3.53-2.79 7.5-2.79 11.72 0 14.48 11.74 26.23 26.23 26.23s26.23-11.74 26.23-26.23-11.74-26.23-26.23-26.23Zm-228.92 38.71c-7.02 0-12.73-5.71-12.73-12.73s5.71-12.73 12.73-12.73 12.73 5.71 12.73 12.73-5.71 12.73-12.73 12.73Zm58.93 38.36c0 7.02-5.71 12.73-12.73 12.73s-12.73-5.71-12.73-12.73 5.71-12.73 12.73-12.73 12.73 5.71 12.73 12.73Zm136.52.24c0 7.02-5.71 12.73-12.73 12.73s-12.73-5.71-12.73-12.73 5.71-12.73 12.73-12.73 12.73 5.71 12.73 12.73Zm-68.26-.24c0 7.02-5.71 12.73-12.73 12.73s-12.73-5.71-12.73-12.73 5.71-12.73 12.73-12.73 12.73 5.71 12.73 12.73ZM353.89 344c-7.02 0-12.73-5.71-12.73-12.73s5.71-12.73 12.73-12.73 12.73 5.71 12.73 12.73S360.91 344 353.89 344Z" style="fill:#fff"/>
    <path d="M179.35 205.7c-10.8 0-19.56 8.76-19.56 19.56s8.76 19.56 19.56 19.56 19.56-8.76 19.56-19.56-8.76-19.56-19.56-19.56Z" class="cls-1"/>
    <circle cx="294.41" cy="225.26" r="19.56" class="cls-1"/>
  </g>
</svg>
