<svg xmlns="http://www.w3.org/2000/svg" id="Layer_2" viewBox="0 0 854.67 144.79">
    <defs>
        <!-- <style>
        .cls-1{fill:#111018}.cls-3{fill:#454aab}.cls-5{fill:#2d2d59}
      </style> -->
        <style>
            .cls-1{fill:var(--logo-text)}.cls-2{fill:var(--logo-jelly)}.cls-3{fill:var(--logo-accent)}.cls-4{fill:var(--logo-circle)}.cls-5{fill:var(--logo-accent-2)}
        </style>
    </defs>
    <g id="Layer_1-2">
        <circle cx="73" cy="72" r="71" class="cls-3" />
        <path
            class="cls-1"
            d="M220.85 36.7c-3.1-3.56-6.87-6.27-11.2-8.05-4.31-1.77-9.18-2.67-14.48-2.67s-10.16.9-14.48 2.67a29.165 29.165 0 0 0-11.15 8.05c-3.04 3.54-5.44 7.96-7.13 13.14-1.68 5.15-2.53 11.15-2.53 17.85s.85 12.79 2.53 17.9c1.69 5.14 4.08 9.54 7.13 13.08 3.06 3.56 6.81 6.27 11.15 8.05 4.31 1.77 9.18 2.67 14.48 2.67s10.16-.9 14.48-2.67c4.34-1.78 8.1-4.49 11.2-8.05 3.08-3.54 5.48-7.95 7.13-13.09 1.64-5.12 2.47-11.14 2.47-17.9s-.83-12.69-2.47-17.84c-1.65-5.18-4.05-9.61-7.13-13.15Zm-25.68 57.51c-5.39 0-9.55-1.73-12.73-5.3-3.16-3.55-4.77-8.64-4.77-15.12V61.61c0-6.48 1.6-11.57 4.77-15.12 3.18-3.57 7.34-5.3 12.73-5.3s9.55 1.73 12.73 5.3c3.16 3.56 4.77 8.64 4.77 15.12v12.18c0 6.48-1.6 11.57-4.77 15.12-3.18 3.57-7.34 5.3-12.73 5.3ZM270.48 45.83c-4.09 0-7.73 1.06-10.82 3.16-2.05 1.39-3.67 3.12-4.87 5.16v-6.97h-16.43v83.42h16.43v-29.73c1.22 2.09 2.86 3.86 4.91 5.3 3.05 2.14 6.68 3.23 10.78 3.23 7.82 0 13.88-2.83 18-8.41 4.06-5.49 6.12-13.39 6.12-23.49s-2.06-17.87-6.12-23.32c-4.13-5.54-10.18-8.35-18-8.35Zm7.01 26.71v10.15c0 3.93-1.08 7.07-3.22 9.35-2.15 2.29-4.9 3.41-8.41 3.41-3.23 0-5.94-.77-8.04-2.29-2.03-1.47-3.02-3.52-3.02-6.29V68.15c0-2.55 1-4.54 3.04-6.08 2.11-1.59 4.81-2.39 8.03-2.39 3.5 0 6.25 1.13 8.4 3.46 2.14 2.32 3.23 5.49 3.23 9.42ZM347.49 55c-2.27-2.82-5.2-5.07-8.7-6.71-3.5-1.63-7.67-2.46-12.38-2.46-4.4 0-8.41.77-11.9 2.28-3.5 1.52-6.51 3.69-8.93 6.46-2.41 2.75-4.27 6.11-5.55 9.99-1.27 3.84-1.91 8.2-1.91 12.94s.66 9.24 1.97 13.12c1.31 3.91 3.22 7.29 5.67 10.04 2.46 2.77 5.5 4.94 9.04 6.46 3.53 1.51 7.59 2.28 12.07 2.28 5.61 0 10.62-1 14.91-2.97 4.31-1.99 7.77-4.78 10.27-8.3l.46-.65-9.11-10.2-.74.95c-1.73 2.22-3.71 4.06-5.9 5.49-2.12 1.38-4.91 2.08-8.31 2.08-4.43 0-7.79-1.19-9.98-3.54-2.22-2.37-3.34-5.59-3.34-9.56v-.46h39.13V76.5c0-4.13-.56-8.08-1.68-11.74-1.12-3.68-2.83-6.96-5.08-9.75Zm-32.37 16.32c.02-3.75 1.07-6.83 3.13-9.16 2.08-2.35 4.82-3.5 8.39-3.5s6.03 1.11 7.84 3.4c1.84 2.33 2.77 5.44 2.77 9.25h-22.13ZM392.67 45.83c-4.8 0-8.64 1.16-11.41 3.44a20.077 20.077 0 0 0-4.62 5.46v-7.55h-16.43v60.87h16.43V68.14c0-1.39.3-2.61.88-3.61.6-1.04 1.4-1.92 2.37-2.62.99-.72 2.14-1.28 3.42-1.66 1.3-.38 2.66-.58 4.06-.58 3.14 0 5.31.9 6.63 2.74 1.37 1.92 2.07 4.92 2.07 8.89v36.75h16.43V69.83c0-7.57-1.71-13.51-5.07-17.66-3.42-4.21-8.39-6.35-14.76-6.35ZM461.02 65.06l-19.81-37.73h-18.4v80.72h16.09V53.96l4.66 9.58 17.01 31.4 17.03-31.43 4.64-9.55v54.09h16.09V27.33H480.6l-19.58 37.73zM554.86 54.45c-2.46-2.77-5.48-4.92-8.99-6.41-3.5-1.47-7.46-2.22-11.78-2.22s-8.27.75-11.73 2.22a25.008 25.008 0 0 0-8.93 6.4c-2.45 2.76-4.35 6.12-5.67 9.98-1.31 3.84-1.97 8.24-1.97 13.07s.66 9.24 1.97 13.12c1.31 3.9 3.22 7.3 5.67 10.09 2.46 2.81 5.46 4.98 8.93 6.46 3.46 1.47 7.4 2.22 11.73 2.22s8.28-.75 11.78-2.22c3.51-1.48 6.53-3.66 8.99-6.47 2.44-2.79 4.35-6.19 5.67-10.09 1.31-3.88 1.97-8.3 1.97-13.12s-.66-9.22-1.97-13.07c-1.32-3.87-3.22-7.23-5.67-9.98Zm-20.77 41.33c-3.5 0-6.18-1.04-8.18-3.18-1.99-2.13-3-5.35-3-9.58V72.08c0-4.15 1.01-7.34 3-9.47 2-2.14 4.68-3.18 8.18-3.18s6.29 1.04 8.29 3.18c1.99 2.13 3 5.31 3 9.47v10.94c0 4.23-1.01 7.45-3 9.58-2 2.14-4.71 3.18-8.29 3.18ZM605.66 54.35c-1.2-2.13-2.87-3.92-4.98-5.36-3.09-2.1-6.73-3.16-10.82-3.16-7.74 0-13.76 2.81-17.89 8.35-4.06 5.45-6.12 13.3-6.12 23.32s2.06 18 6.12 23.49c4.13 5.58 10.15 8.41 17.89 8.41 4.1 0 7.74-1.08 10.83-3.22 2.11-1.46 3.77-3.27 4.97-5.4v7.27h16.43V22.6h-16.43v31.75Zm0 13.8v18.72c0 2.76-1.01 4.82-3.07 6.29-2.15 1.52-4.87 2.3-8.1 2.3-3.5 0-6.23-1.11-8.34-3.4-2.11-2.28-3.17-5.43-3.17-9.36V72.55c0-3.93 1.07-7.1 3.18-9.42 2.11-2.32 4.84-3.45 8.34-3.45 3.22 0 5.94.81 8.09 2.4 2.08 1.55 3.09 3.53 3.09 6.08ZM677.55 55c-2.27-2.82-5.2-5.07-8.7-6.71-3.5-1.63-7.67-2.46-12.38-2.46-4.4 0-8.41.77-11.9 2.28-3.5 1.52-6.51 3.69-8.93 6.46-2.41 2.75-4.27 6.11-5.55 9.99-1.27 3.84-1.91 8.2-1.91 12.94s.66 9.24 1.97 13.12c1.31 3.91 3.22 7.29 5.67 10.04 2.46 2.77 5.5 4.94 9.04 6.46 3.53 1.51 7.59 2.28 12.07 2.28 5.61 0 10.62-1 14.91-2.97 4.31-1.99 7.77-4.78 10.27-8.3l.46-.65-9.11-10.2-.74.95c-1.73 2.22-3.71 4.06-5.9 5.49-2.12 1.38-4.91 2.08-8.31 2.08-4.43 0-7.79-1.19-9.98-3.54-2.22-2.37-3.34-5.59-3.34-9.56v-.46h39.13V76.5c0-4.13-.56-8.08-1.68-11.74-1.12-3.68-2.83-6.96-5.08-9.75Zm-32.37 16.32c.02-3.75 1.07-6.83 3.13-9.16 2.08-2.35 4.82-3.5 8.39-3.5s6.03 1.11 7.84 3.4c1.84 2.33 2.77 5.44 2.77 9.25h-22.13ZM706.49 94.43V22.6h-16.43v70.24c0 4.75 1.27 8.51 3.77 11.17 2.51 2.68 6.44 4.04 11.67 4.04h8.78V94.43h-7.78Z" />
        <path
            d="M776.66 37.53c-3.06-3.37-6.79-5.94-11.08-7.64-4.27-1.69-9.08-2.55-14.3-2.55h-29.65v80.72h29.65c5.22 0 10.03-.86 14.3-2.55 4.29-1.7 8.02-4.27 11.08-7.64 3.05-3.36 5.43-7.61 7.09-12.65 1.64-5 2.47-10.9 2.47-17.51s-.83-12.5-2.47-17.51c-1.66-5.04-4.04-9.29-7.09-12.65Zm-38.14 5h12.76c5.26 0 9.48 1.55 12.54 4.61s4.61 7.89 4.61 14.35V73.9c0 6.46-1.55 11.29-4.61 14.35-3.06 3.06-7.28 4.61-12.54 4.61h-12.76V42.53ZM852.88 75.54c-1.18-2.4-2.69-4.41-4.47-5.95-1.78-1.54-3.75-2.69-5.86-3.41-.54-.18-1.07-.34-1.6-.48.44-.14.88-.29 1.31-.46 1.81-.73 3.45-1.83 4.86-3.28 1.41-1.45 2.54-3.29 3.37-5.47.83-2.17 1.25-4.85 1.25-7.97s-.5-6.02-1.47-8.64c-.99-2.65-2.46-4.92-4.36-6.74-1.89-1.82-4.23-3.25-6.94-4.27-2.7-1.02-5.76-1.53-9.09-1.53h-37.43v80.72h40.92c3.07 0 5.95-.62 8.54-1.84 2.59-1.22 4.86-2.91 6.75-5.03 1.88-2.11 3.37-4.63 4.42-7.48 1.05-2.84 1.58-5.94 1.58-9.2 0-3.52-.6-6.54-1.79-8.96Zm-43.54-1.21h19.75c2.58 0 4.58.67 5.96 1.98 1.38 1.32 2.06 3.19 2.06 5.7v3.83c0 2.51-.67 4.36-2.05 5.64-1.38 1.28-3.39 1.93-5.97 1.93h-19.75V74.32Zm24.95-21.52c0 2.37-.64 4.15-1.95 5.43-1.32 1.29-3.16 1.92-5.62 1.92h-17.38V41.97h17.38c2.46 0 4.29.63 5.62 1.92 1.31 1.28 1.95 3.06 1.95 5.43v3.5ZM18.71 23.85ZM17.54 25.17l.84-.96c-.28.32-.57.64-.84.96ZM16.41 26.52l.78-.93-.78.93ZM137.23 104.62c2.46-4.94 4.37-10.2 5.66-15.71v-.01.01a71.74 71.74 0 0 1-5.66 15.71ZM19.91 22.55l1.05-1.08-1.05 1.08ZM143.43 86.37c-.05.24-.09.48-.14.72.05-.24.1-.48.14-.72ZM16.04 26.98c-.14.18-.29.35-.43.53.14-.18.28-.36.43-.53ZM34.24 36.42c12.72 26.24 78.17 22.32 110.5 38.97.04-.99.07-1.99.07-3C144.81 32.41 112.39 0 72.41 0 52.38 0 34.24 8.14 21.14 21.29c.42-.42.84-.83 1.26-1.23 3.23 1.52 6.78 5.93 11.84 16.37ZM144.74 75.4c-.09 2.2-.29 4.37-.57 6.51.29-2.14.48-4.31.57-6.51ZM144.1 82.39c-.05.38-.11.76-.17 1.14.06-.38.12-.76.17-1.14ZM143.8 84.34c-.05.32-.11.63-.16.95.06-.31.11-.63.16-.95Z"
            class="cls-3" />
        <path
            d="M72.17 144.79c-.43 0-.85 0-1.28-.01.42 0 .85.01 1.28.01ZM81.53 144.22c.27-.03.54-.07.8-.11-.27.04-.54.07-.8.11ZM75.27 144.73c.16 0 .31-.01.47-.02-.16 0-.31.01-.47.02ZM78.38 144.55l.66-.06-.66.06ZM73.81 144.78c.16 0 .32 0 .48-.01-.16 0-.32 0-.48.01ZM82.8 144.05c.96-.14 1.91-.29 2.85-.47-.94.17-1.9.33-2.85.47ZM79.8 144.42c.39-.04.78-.08 1.16-.13-.39.05-.78.09-1.16.13ZM77.02 144.65c.2-.01.39-.03.59-.04-.2.01-.39.03-.59.04ZM72.4 144.79H72.47h-.07ZM143.43 86.37l.21-1.08c.06-.31.11-.63.16-.95.05-.27.09-.54.13-.82.06-.38.12-.76.17-1.14l.06-.48c.28-2.14.48-4.31.57-6.51-32.33-16.65-97.78-12.73-110.5-38.97-5.06-10.44-8.61-14.85-11.84-16.37-.43.41-.85.82-1.26 1.23l-.18.18-1.05 1.08c-.09.1-.18.19-.27.29-.31.33-.62.66-.93 1-.11.12-.22.24-.32.36-.28.32-.57.64-.84.96-.12.14-.24.28-.35.42l-.78.93c-.13.15-.25.31-.37.46-.14.18-.28.36-.43.53 4.6 2.81 9.98 7.92 13.89 21.28C34.94 70.24 62.47 69.5 62.47 69.5s17.28-4.58 69 44.7c-10.63 15-26.82 25.77-45.57 29.31 22.56-4.25 41.41-18.97 51.34-38.91 2.46-4.94 4.37-10.2 5.66-15.71v-.01c.14-.6.27-1.2.4-1.81.05-.24.1-.48.14-.72Z"
            class="cls-5" />
        <path
            d="M131.46 114.23c-51.72-49.28-69-44.7-69-44.7s-27.52.74-32.97-20.73C25.58 35.44 20.2 30.33 15.6 27.52h-.01C5.83 39.84 0 55.44 0 72.4c0 5.61.66 11.07 1.87 16.31 7.29 31.66 35.32 55.38 69.03 56.07.42 0 .85.01 1.28.01H72.48c.45 0 .89 0 1.33-.01.16 0 .32 0 .48-.01.33 0 .66-.02.98-.03.16 0 .31-.01.47-.02.43-.02.86-.04 1.28-.07.2-.01.39-.03.59-.04l.78-.06.66-.06c.25-.02.5-.05.75-.07.39-.04.78-.08 1.16-.13.19-.02.38-.04.57-.07.27-.03.54-.07.8-.11.15-.02.31-.04.46-.07.96-.14 1.91-.29 2.85-.47.08-.01.16-.03.24-.05 18.75-3.54 34.94-14.31 45.57-29.31Z"
            style="fill:#090822" />
        <path
            d="M107.03 92.26c-1.27 0-2.47.31-3.53.84l-5.15-5.15v-4.88c6.66 1.32 12.21.91 14.86-4.98 5.4-11.98-12.86-11.81-12.86-28.84 0-14.44-12.55-28.02-28.02-28.02h-.06c-15.48 0-28.02 13.58-28.02 28.02 0 17.03-18.62 18.73-12.86 28.84 3.14 5.51 8.65 5.98 15.08 4.79v4.99l-5.15 5.15a7.882 7.882 0 0 0-3.53-.84c-4.38 0-7.93 3.55-7.93 7.93s3.55 7.93 7.93 7.93a7.93 7.93 0 0 0 7.09-11.48l5.89-5.88c.47-.47.74-1.11.74-1.78v-7.19c1.31-.35 2.63-.72 3.97-1.1 1-.29 2.02-.44 3.04-.52V92.7l-8.38 7.2c-.56.48-.87 1.17-.87 1.9v6.23a7.93 7.93 0 0 0 2.51 15.45 7.93 7.93 0 0 0 2.51-15.45v-5.07l8.38-7.2c.56-.48.87-1.17.87-1.9V80.3c2.16.27 4.29.67 6.35.89v26.86c-3.14 1.06-5.4 4.02-5.4 7.51 0 4.38 3.55 7.93 7.93 7.93s7.93-3.55 7.93-7.93c0-3.51-2.28-6.48-5.44-7.52V81.2c2.07-.21 4.21-.61 6.38-.87v13.6c0 .73.32 1.43.87 1.9l8.38 7.2v5.07a7.93 7.93 0 0 0 2.51 15.45 7.93 7.93 0 0 0 2.51-15.45v-6.23c0-.73-.32-1.43-.87-1.9l-8.38-7.2V80.16c1.02.08 2.05.25 3.07.55 1.33.39 2.64.77 3.94 1.12v7.14c0 .67.26 1.31.74 1.78l5.89 5.89a7.93 7.93 0 0 0 7.09 11.48c4.38 0 7.93-3.55 7.93-7.93s-3.55-7.93-7.93-7.93Zm-69.24 11.71c-2.12 0-3.85-1.73-3.85-3.85s1.73-3.85 3.85-3.85 3.85 1.73 3.85 3.85-1.73 3.85-3.85 3.85Zm17.82 11.6c0 2.12-1.73 3.85-3.85 3.85s-3.85-1.73-3.85-3.85 1.73-3.85 3.85-3.85 3.85 1.73 3.85 3.85Zm41.29.07c0 2.12-1.73 3.85-3.85 3.85s-3.85-1.73-3.85-3.85 1.73-3.85 3.85-3.85 3.85 1.73 3.85 3.85Zm-20.64-.07c0 2.12-1.73 3.85-3.85 3.85s-3.85-1.73-3.85-3.85 1.73-3.85 3.85-3.85 3.85 1.73 3.85 3.85Zm30.77-11.53c-2.12 0-3.85-1.73-3.85-3.85s1.73-3.85 3.85-3.85 3.85 1.73 3.85 3.85-1.73 3.85-3.85 3.85Z"
            class="cls-2" />
        <path
            d="M54.24 62.21c-3.27 0-5.91 2.65-5.91 5.91s2.65 5.91 5.91 5.91 5.91-2.65 5.91-5.91-2.65-5.91-5.91-5.91Z"
            class="cls-4" />
        <circle cx="89.04" cy="68.13" r="5.91" class="cls-4" />
    </g>
</svg>
  