<?xml version="1.0" encoding="UTF-8"?>
<svg id="Layer_2" xmlns="http://www.w3.org/2000/svg" viewBox="0 0 883.96 142.89">
    <defs>
        <style>
            .cls-1{fill:var(--logo-dark);}.cls-2{fill:var(--logo-light);}.cls-3{fill:var(--logo-accent);}</style>
    </defs>
    <g id="Layer_1-2">
        <g>
            <g>
                <path class="cls-3"
                    d="m141.02,87.75c1.22-5.24,1.89-10.69,1.89-16.3C142.91,31.99,110.92,0,71.46,0S.02,31.99.02,71.45c0,5.54.65,10.92,1.84,16.1,17.76-12.97,42.31-20.99,69.44-20.99s51.94,8.11,69.72,21.2Z" />
                <path class="cls-1"
                    d="m71.46,142.89c33.85,0,62.18-23.54,69.56-55.14-17.78-13.09-42.45-21.2-69.72-21.2S19.61,74.58,1.86,87.54c7.3,31.7,35.68,55.35,69.6,55.35Z" />
            </g>
            <path class="cls-2"
                d="m105.63,91.05c-1.25,0-2.43.3-3.48.83l-5.09-5.09v-4.82c6.57,1.31,12.05.9,14.67-4.91,5.33-11.82-12.69-11.66-12.69-28.46,0-14.25-12.38-27.66-27.66-27.66,0,0-.02,0-.03,0,0,0-.02,0-.03,0-15.27,0-27.66,13.4-27.66,27.66,0,16.81-18.38,18.48-12.69,28.46,3.1,5.44,8.54,5.9,14.88,4.73v4.92l-5.09,5.09c-1.05-.52-2.23-.83-3.48-.83-4.32,0-7.83,3.5-7.83,7.83s3.5,7.83,7.83,7.83,7.83-3.5,7.83-7.83c0-1.26-.3-2.45-.83-3.5l5.81-5.81c.46-.47.73-1.1.73-1.75v-7.1c1.29-.34,2.6-.71,3.92-1.09.99-.28,1.99-.44,3-.51v12.45l-8.27,7.11c-.55.47-.86,1.16-.86,1.88v6.15c-3.11,1.04-5.35,3.96-5.35,7.42,0,4.32,3.5,7.83,7.83,7.83s7.83-3.5,7.83-7.83c0-3.46-2.24-6.38-5.35-7.42v-5.01l8.27-7.11c.55-.47.86-1.16.86-1.88v-13.38c2.13.26,4.24.66,6.27.88v26.51c-3.1,1.04-5.33,3.96-5.33,7.41,0,4.32,3.5,7.83,7.83,7.83s7.83-3.5,7.83-7.83c0-3.46-2.25-6.39-5.36-7.43v-26.49c2.04-.21,4.16-.6,6.3-.85v13.42c0,.72.31,1.41.86,1.88l8.27,7.11v5.01c-3.11,1.04-5.35,3.97-5.35,7.42,0,4.32,3.5,7.83,7.83,7.83s7.83-3.5,7.83-7.83c0-3.46-2.24-6.38-5.35-7.42v-6.15c0-.72-.32-1.41-.86-1.88l-8.27-7.11v-12.44c1.01.08,2.02.25,3.03.54,1.31.38,2.61.76,3.89,1.11v7.04c0,.66.26,1.29.73,1.75l5.81,5.81c-.53,1.05-.83,2.24-.83,3.5,0,4.32,3.5,7.83,7.83,7.83s7.83-3.5,7.83-7.83-3.5-7.83-7.83-7.83Zm-68.33,11.55c-2.09,0-3.8-1.7-3.8-3.8s1.7-3.8,3.8-3.8,3.8,1.7,3.8,3.8-1.7,3.8-3.8,3.8Zm17.59,11.45c0,2.09-1.7,3.8-3.8,3.8s-3.8-1.7-3.8-3.8,1.7-3.8,3.8-3.8,3.8,1.7,3.8,3.8Zm40.75.07c0,2.09-1.7,3.8-3.8,3.8s-3.8-1.7-3.8-3.8,1.7-3.8,3.8-3.8,3.8,1.7,3.8,3.8Zm-20.37-.07c0,2.09-1.7,3.8-3.8,3.8s-3.8-1.7-3.8-3.8,1.7-3.8,3.8-3.8,3.8,1.7,3.8,3.8Zm30.37-11.38c-2.09,0-3.8-1.7-3.8-3.8s1.7-3.8,3.8-3.8,3.8,1.7,3.8,3.8-1.7,3.8-3.8,3.8Z" />
            <g>
                <path class="cls-1"
                    d="m53.53,61.4c-3.22,0-5.84,2.61-5.84,5.84s2.61,5.84,5.84,5.84,5.84-2.61,5.84-5.84-2.61-5.84-5.84-5.84Z" />
                <circle class="cls-1" cx="87.88" cy="67.24" r="5.84" />
            </g>
        </g>
        <g>
            <g>
                <path class="cls-1"
                    d="m199.02,24.59c-12.38,0-22.31,3.79-29.52,11.26-7.2,7.46-10.85,17.96-10.85,31.2s3.64,23.65,10.82,31.17c7.19,7.53,17.12,11.35,29.49,11.35s22.25-3.83,29.47-11.38c7.2-7.54,10.85-18,10.85-31.09s-3.63-23.74-10.8-31.23c-7.17-7.49-17.09-11.29-29.47-11.29Zm16.92,63.57c-3.77,4.81-9.46,7.24-16.92,7.24s-13.16-2.45-16.94-7.27c-3.84-4.9-5.79-11.93-5.79-20.91s1.96-16.23,5.82-21.22c3.8-4.91,9.51-7.4,16.97-7.4s13.09,2.48,16.86,7.37c3.83,4.97,5.77,12.12,5.77,21.25s-1.94,16.06-5.76,20.94Z" />
                <path class="cls-1"
                    d="m290.66,48.68c-3.92-2.87-8.52-4.32-13.67-4.32-4.18,0-8.04.92-11.45,2.73-2.71,1.44-5.01,3.36-6.88,5.75l-1.26-6.94h-14.22v87.73l16.43-.82v-23.8c0-.55-.09-2.54-.29-6.17,1.79,1.74,3.87,3.2,6.2,4.34,3.23,1.58,6.87,2.39,10.82,2.39,8.04,0,14.5-3.1,19.21-9.23,4.65-6.04,7.01-13.95,7.01-23.49,0-6.08-1.01-11.63-2.99-16.49-2.01-4.91-5-8.84-8.9-11.69Zm-4.54,28.06c0,6.44-1.19,11.44-3.54,14.85h0c-2.3,3.34-5.35,4.96-9.34,4.96-4.58,0-7.92-1.58-10.22-4.84-2.34-3.32-3.53-8.67-3.53-15.91.11-12.45,4.52-18.5,13.48-18.5,4.14,0,7.28,1.54,9.6,4.71,2.36,3.22,3.55,8.18,3.55,14.72Z" />
                <path class="cls-1"
                    d="m335.19,44.41h0c-9.06.04-16.34,3.04-21.61,8.92-5.25,5.85-7.91,13.8-7.91,23.63s2.83,18.14,8.4,23.91c5.58,5.77,13.47,8.7,23.43,8.7,8.52,0,15.98-1.94,22.17-5.77l.59-.37-2.44-12.28-1.2.68c-5.91,3.35-12.16,5.05-18.56,5.05-4.87,0-8.73-1.46-11.47-4.34-2.59-2.72-4.04-6.56-4.33-11.44h40.21v-1c0-.66,0-1.68.03-3.07.02-1.4.03-2.41.03-3.04,0-8.84-2.41-16.04-7.16-21.42-4.79-5.41-11.57-8.16-20.16-8.16Zm11.7,25.61h-24.32c.46-4.27,1.81-7.55,3.99-9.75,2.38-2.4,5.22-3.56,8.68-3.56,3.69,0,6.48,1.18,8.54,3.61,1.92,2.27,2.96,5.53,3.1,9.7Z" />
                <path class="cls-1"
                    d="m401.24,44.41c-7.23,0-13.92,2.75-19.93,8.18l-1.4-6.7h-13.43v62.52h16.43v-30.46c0-5.77.33-10.1.99-12.88,1.09-2.2,2.85-4.05,5.22-5.52,2.41-1.49,5.12-2.25,8.04-2.25,3.67,0,6.11,1.04,7.47,3.17,1.43,2.25,2.18,5.76,2.21,10.42v37.51h16.48v-39.27c0-7.92-1.85-14.08-5.5-18.3-3.69-4.27-9.27-6.43-16.59-6.43Z" />
                <polygon class="cls-1"
                    points="476.27 82.42 452.54 25.74 433.25 25.74 433.25 108.41 448.69 108.41 448.69 67.75 448.33 50.92 468.76 102.91 482.89 102.91 503.78 51.16 503.46 67.55 503.46 108.41 519.23 108.41 519.23 25.74 500.16 25.74 476.27 82.42" />
                <path class="cls-1"
                    d="m552.62,44.41c-9.61,0-17.18,2.95-22.49,8.78-5.29,5.8-7.97,13.8-7.97,23.77s2.68,17.61,7.96,23.57c5.31,6,12.68,9.04,21.89,9.04s17.14-2.99,22.49-8.89c5.32-5.87,8.02-13.85,8.02-23.72s-2.67-17.69-7.94-23.6c-5.3-5.94-12.69-8.95-21.97-8.95Zm9.97,47.29h0c-2.28,3.3-5.61,4.91-10.19,4.91s-7.99-1.61-10.3-4.92c-2.36-3.37-3.56-8.31-3.56-14.68s1.19-11.46,3.54-14.82c2.3-3.29,5.64-4.89,10.22-4.89s8.02,1.59,10.3,4.86c2.33,3.34,3.51,8.31,3.51,14.79s-1.18,11.37-3.51,14.74Z" />
                <path class="cls-1"
                    d="m629.41,44.14c0,2.23.08,4.53.24,6.88-3.85-4.39-9.53-6.61-16.92-6.61-8.18,0-14.7,3.01-19.37,8.94-4.62,5.86-6.96,13.7-6.96,23.28s2.35,17.9,6.98,23.85c4.69,6.03,11.22,9.09,19.4,9.09,2.27,0,4.37-.22,6.26-.66,1.89-.44,3.47-.96,4.72-1.56,1.28-.61,2.48-1.42,3.58-2.42,1.09-.99,1.89-1.85,2.47-2.62.14-.18.27-.37.41-.57l1.29,6.67h14.33V22.59l-16.43,1.07v20.49Zm.55,33.69c-.14,12.64-4.64,18.78-13.76,18.78-4.14,0-7.33-1.6-9.74-4.88-2.45-3.33-3.69-8.3-3.69-14.77s1.24-11.46,3.68-14.74c2.41-3.23,5.54-4.8,9.58-4.8,4.66,0,8.05,1.54,10.37,4.71,2.36,3.22,3.55,8.51,3.55,15.7Z" />
                <path class="cls-1"
                    d="m678.49,44.41h0c-9.06.04-16.34,3.04-21.61,8.92-5.25,5.85-7.91,13.8-7.91,23.63s2.83,18.14,8.4,23.91c5.58,5.77,13.47,8.7,23.43,8.7,8.52,0,15.98-1.94,22.17-5.77l.59-.37-2.44-12.28-1.2.68c-5.91,3.35-12.16,5.05-18.56,5.05-4.87,0-8.73-1.46-11.47-4.34-2.59-2.72-4.04-6.56-4.33-11.44h40.21v-1c0-.66,0-1.68.03-3.07.02-1.4.03-2.41.03-3.04,0-8.84-2.41-16.04-7.16-21.42-4.79-5.41-11.57-8.16-20.16-8.16Zm11.7,25.61h-24.32c.46-4.27,1.81-7.55,3.99-9.75,2.38-2.4,5.22-3.56,8.68-3.56,3.69,0,6.48,1.18,8.54,3.61,1.92,2.27,2.96,5.53,3.1,9.7Z" />
                <path class="cls-1"
                    d="m742.63,95.47l-1.1.16c-2.77.4-5.07.6-6.85.6-3.34,0-5.57-.82-6.66-2.45-1.17-1.75-1.76-5.28-1.76-10.48V22.59l-16.43,1.07v59.91c0,4.42.32,8.18.96,11.17.65,3.06,1.82,5.75,3.48,7.99,1.69,2.28,4.03,3.96,6.94,5,2.83,1.01,6.42,1.52,10.66,1.52,1.06,0,2.22-.07,3.46-.2,1.22-.13,2.25-.26,3.06-.39.8-.13,1.65-.29,2.53-.48.65-.14,1.06-.22,1.22-.25h.96l-.46-12.45Z" />
            </g>
            <g>
                <path class="cls-3"
                    d="m804.56,35.68c-4.1-3.32-9.07-5.83-14.75-7.48-5.64-1.63-12.11-2.46-19.22-2.46h-24.35v82.67h25.72c14.1,0,25.31-3.63,33.32-10.8,8.04-7.19,12.12-17.57,12.12-30.84,0-6.82-1.11-12.92-3.3-18.14-2.2-5.25-5.41-9.61-9.54-12.95Zm-31.71,58.78h-9.68v-54.72h8.08c9.68,0,17,2.18,21.74,6.49,4.71,4.28,7.11,11.3,7.11,20.87,0,8.93-2.33,15.8-6.92,20.41h0c-4.59,4.61-11.43,6.95-20.33,6.95Z" />
                <path class="cls-3"
                    d="m879.79,70.71c-2.25-2.92-5.33-5.09-9.18-6.48,1.02-.49,1.96-1.05,2.81-1.69,1.58-1.18,2.84-2.41,3.74-3.66.89-1.25,1.62-2.65,2.17-4.19.53-1.51.88-2.88,1.04-4.09.15-1.18.23-2.39.23-3.6,0-7.61-2.81-13.14-8.36-16.44-5.38-3.2-13.6-4.82-24.41-4.82h-26.17v82.67h30.9c9.68,0,17.4-2.09,22.93-6.2,5.62-4.18,8.47-10.31,8.47-18.2,0-5.23-1.4-9.71-4.17-13.3Zm-41.2.76h11.55c5.75,0,10.02.94,12.7,2.8,2.6,1.8,3.86,4.72,3.86,8.92,0,8.37-5.29,12.44-16.18,12.44h-11.94v-24.16Zm11.78-12.41h-11.78v-20.36h8.75c6,0,10.41.75,13.09,2.24,2.53,1.4,3.75,3.96,3.75,7.83,0,6.92-4.52,10.29-13.81,10.29Z" />
            </g>
        </g>
    </g>
</svg>