<svg xmlns="http://www.w3.org/2000/svg" id="Layer_2" viewBox="0 0 853.71 142.89">
    <defs>
        <style>
            .cls-1{fill:var(--logo-text)}.cls-2{fill:var(--logo-jelly)}.cls-3{fill:var(--logo-accent)}.cls-4{fill:var(--logo-circle)}</style>
    </defs>
    <g id="Layer_1-2">
        <g class="cls-1">
            <path
                d="M219.88 35.75c-3.1-3.56-6.87-6.27-11.2-8.05-4.31-1.77-9.18-2.67-14.48-2.67s-10.16.9-14.48 2.67a29.165 29.165 0 0 0-11.15 8.05c-3.04 3.54-5.44 7.96-7.13 13.14-1.68 5.15-2.53 11.15-2.53 17.85s.85 12.79 2.53 17.9c1.69 5.14 4.08 9.54 7.13 13.08 3.06 3.56 6.81 6.27 11.15 8.05 4.31 1.77 9.18 2.67 14.48 2.67s10.16-.9 14.48-2.67c4.34-1.78 8.1-4.49 11.2-8.05 3.08-3.54 5.48-7.95 7.13-13.09 1.64-5.12 2.47-11.14 2.47-17.9s-.83-12.69-2.47-17.84c-1.65-5.18-4.05-9.61-7.13-13.15ZM194.2 93.26c-5.39 0-9.55-1.73-12.73-5.3-3.16-3.55-4.77-8.64-4.77-15.12V60.66c0-6.48 1.6-11.57 4.77-15.12 3.18-3.57 7.34-5.3 12.73-5.3s9.55 1.73 12.73 5.3c3.16 3.56 4.77 8.64 4.77 15.12v12.18c0 6.48-1.6 11.57-4.77 15.12-3.18 3.57-7.34 5.3-12.73 5.3ZM269.51 44.88c-4.09 0-7.73 1.06-10.82 3.16-2.05 1.39-3.67 3.12-4.87 5.16v-6.97h-16.43v83.42h16.43V99.92c1.22 2.09 2.86 3.86 4.91 5.3 3.05 2.14 6.68 3.23 10.78 3.23 7.82 0 13.88-2.83 18-8.41 4.06-5.49 6.12-13.39 6.12-23.49s-2.06-17.87-6.12-23.32c-4.13-5.54-10.18-8.35-18-8.35Zm7.01 26.71v10.15c0 3.93-1.08 7.07-3.22 9.35-2.15 2.29-4.9 3.41-8.41 3.41-3.23 0-5.94-.77-8.04-2.29-2.03-1.47-3.02-3.52-3.02-6.29V67.2c0-2.55 1-4.54 3.04-6.08 2.11-1.59 4.81-2.39 8.03-2.39 3.5 0 6.25 1.13 8.4 3.46 2.14 2.32 3.23 5.49 3.23 9.42ZM346.53 54.05c-2.27-2.82-5.2-5.07-8.7-6.71-3.5-1.63-7.67-2.46-12.38-2.46-4.4 0-8.41.77-11.9 2.28-3.5 1.52-6.51 3.69-8.93 6.46-2.41 2.75-4.27 6.11-5.55 9.99-1.27 3.84-1.91 8.2-1.91 12.94s.66 9.24 1.97 13.12c1.31 3.91 3.22 7.29 5.67 10.04 2.46 2.77 5.5 4.94 9.04 6.46 3.53 1.51 7.59 2.28 12.07 2.28 5.61 0 10.62-1 14.91-2.97 4.31-1.99 7.77-4.78 10.27-8.3l.46-.65-9.11-10.2-.74.95c-1.73 2.22-3.71 4.06-5.9 5.49-2.12 1.38-4.91 2.08-8.31 2.08-4.43 0-7.79-1.19-9.98-3.54-2.22-2.37-3.34-5.59-3.34-9.56v-.46h39.13v-5.74c0-4.13-.56-8.08-1.68-11.74-1.12-3.68-2.83-6.96-5.08-9.75Zm-32.37 16.32c.02-3.75 1.07-6.83 3.13-9.16 2.08-2.35 4.82-3.5 8.39-3.5s6.03 1.11 7.84 3.4c1.84 2.33 2.77 5.44 2.77 9.25h-22.13ZM391.7 44.88c-4.8 0-8.64 1.16-11.41 3.44a20.077 20.077 0 0 0-4.62 5.46v-7.55h-16.43v60.87h16.43V67.19c0-1.39.3-2.61.88-3.61.6-1.04 1.4-1.92 2.37-2.62.99-.72 2.14-1.28 3.42-1.66 1.3-.38 2.66-.58 4.06-.58 3.14 0 5.31.9 6.63 2.74 1.37 1.92 2.07 4.92 2.07 8.89v36.75h16.43V68.88c0-7.57-1.71-13.51-5.07-17.66-3.42-4.21-8.39-6.35-14.76-6.35ZM460.05 64.11l-19.8-37.73h-18.41v80.72h16.1V53.01l4.66 9.59 17 31.39 17.03-31.43 4.64-9.55v54.09h16.1V26.38h-17.73l-19.59 37.73zM553.9 53.5c-2.46-2.77-5.48-4.92-8.99-6.41-3.5-1.47-7.46-2.22-11.78-2.22s-8.27.75-11.73 2.22a25.008 25.008 0 0 0-8.93 6.4c-2.45 2.76-4.35 6.12-5.67 9.98-1.31 3.84-1.97 8.24-1.97 13.07s.66 9.24 1.97 13.12c1.31 3.9 3.22 7.3 5.67 10.09 2.46 2.81 5.46 4.98 8.93 6.46 3.46 1.47 7.4 2.22 11.73 2.22s8.28-.75 11.78-2.22c3.51-1.48 6.53-3.66 8.99-6.47 2.44-2.79 4.35-6.19 5.67-10.09 1.31-3.88 1.97-8.3 1.97-13.12s-.66-9.22-1.97-13.07c-1.32-3.87-3.22-7.23-5.67-9.98Zm-20.77 41.33c-3.5 0-6.18-1.04-8.18-3.18-1.99-2.13-3-5.35-3-9.58V71.13c0-4.15 1.01-7.34 3-9.47 2-2.14 4.68-3.18 8.18-3.18s6.29 1.04 8.29 3.18c1.99 2.13 3 5.31 3 9.47v10.94c0 4.23-1.01 7.45-3 9.58-2 2.14-4.71 3.18-8.29 3.18ZM604.69 53.4c-1.2-2.13-2.87-3.92-4.98-5.36-3.09-2.1-6.73-3.16-10.82-3.16-7.74 0-13.76 2.81-17.89 8.35-4.06 5.45-6.12 13.3-6.12 23.32s2.06 18 6.12 23.49c4.13 5.58 10.15 8.41 17.89 8.41 4.1 0 7.74-1.08 10.83-3.22 2.11-1.46 3.77-3.27 4.97-5.4v7.27h16.43V21.65h-16.43V53.4Zm0 13.8v18.72c0 2.76-1.01 4.82-3.07 6.29-2.15 1.52-4.87 2.3-8.1 2.3-3.5 0-6.23-1.11-8.34-3.4-2.11-2.28-3.17-5.43-3.17-9.36V71.6c0-3.93 1.07-7.1 3.18-9.42 2.11-2.32 4.84-3.45 8.34-3.45 3.22 0 5.94.81 8.09 2.4 2.08 1.55 3.09 3.53 3.09 6.08ZM676.58 54.05c-2.27-2.82-5.2-5.07-8.7-6.71-3.5-1.63-7.67-2.46-12.38-2.46-4.4 0-8.41.77-11.9 2.28-3.5 1.52-6.51 3.69-8.93 6.46-2.41 2.75-4.27 6.11-5.55 9.99-1.27 3.84-1.91 8.2-1.91 12.94s.66 9.24 1.97 13.12c1.31 3.91 3.22 7.29 5.67 10.04 2.46 2.77 5.5 4.94 9.04 6.46 3.53 1.51 7.59 2.28 12.07 2.28 5.61 0 10.62-1 14.91-2.97 4.31-1.99 7.77-4.78 10.27-8.3l.46-.65-9.11-10.2-.74.95c-1.73 2.22-3.71 4.06-5.9 5.49-2.12 1.38-4.91 2.08-8.31 2.08-4.43 0-7.79-1.19-9.98-3.54-2.22-2.37-3.34-5.59-3.34-9.56v-.46h39.13v-5.74c0-4.13-.56-8.08-1.68-11.74-1.12-3.68-2.83-6.96-5.08-9.75Zm-32.37 16.32c.02-3.75 1.07-6.83 3.13-9.16 2.08-2.35 4.82-3.5 8.39-3.5s6.03 1.11 7.84 3.4c1.84 2.33 2.77 5.44 2.77 9.25h-22.13ZM705.53 93.48V21.65H689.1v70.24c0 4.75 1.27 8.51 3.77 11.17 2.51 2.68 6.44 4.04 11.67 4.04h8.78V93.48h-7.78Z" />
        </g>
        <path
            d="M775.69 36.58c-3.06-3.37-6.79-5.94-11.08-7.64-4.27-1.69-9.08-2.55-14.3-2.55h-29.65v80.72h29.65c5.22 0 10.03-.86 14.3-2.55 4.29-1.7 8.02-4.27 11.08-7.64 3.05-3.36 5.43-7.61 7.09-12.65 1.64-5 2.47-10.9 2.47-17.51s-.83-12.5-2.47-17.51c-1.66-5.04-4.04-9.29-7.09-12.65Zm-38.14 5h12.76c5.26 0 9.48 1.55 12.54 4.61s4.61 7.89 4.61 14.35v12.41c0 6.46-1.55 11.29-4.61 14.35-3.06 3.06-7.28 4.61-12.54 4.61h-12.76V41.58ZM851.92 74.59c-1.18-2.4-2.69-4.41-4.47-5.95-1.78-1.54-3.75-2.69-5.86-3.41-.54-.18-1.07-.34-1.6-.48.44-.14.88-.29 1.31-.46 1.81-.73 3.45-1.83 4.86-3.28 1.41-1.45 2.54-3.29 3.37-5.47.83-2.17 1.25-4.85 1.25-7.97s-.5-6.02-1.47-8.64c-.99-2.65-2.46-4.92-4.36-6.74-1.89-1.82-4.23-3.25-6.94-4.27-2.7-1.02-5.76-1.53-9.09-1.53h-37.43v80.72h40.92c3.07 0 5.95-.62 8.54-1.84 2.59-1.22 4.86-2.91 6.75-5.03 1.88-2.11 3.37-4.63 4.42-7.48 1.05-2.84 1.58-5.94 1.58-9.2 0-3.52-.6-6.54-1.79-8.96Zm-43.54-1.21h19.75c2.58 0 4.58.67 5.96 1.98 1.38 1.32 2.06 3.19 2.06 5.7v3.83c0 2.51-.67 4.36-2.05 5.64-1.38 1.28-3.39 1.93-5.97 1.93h-19.75V73.37Zm24.95-21.52c0 2.37-.64 4.15-1.95 5.43-1.32 1.29-3.16 1.92-5.62 1.92h-17.38V41.02h17.38c2.46 0 4.29.63 5.62 1.92 1.31 1.28 1.95 3.06 1.95 5.43v3.5ZM141.02 87.75a71.773 71.773 0 0 0 1.89-16.3C142.91 31.99 110.92 0 71.46 0S.02 31.99.02 71.45c0 5.54.65 10.92 1.84 16.1C19.62 74.58 44.17 66.56 71.3 66.56s51.94 8.11 69.72 21.2Z"
            class="cls-3" />
        <path
            d="M71.46 142.89c33.85 0 62.18-23.54 69.56-55.14-17.78-13.09-42.45-21.2-69.72-21.2S19.61 74.58 1.86 87.54c7.3 31.7 35.68 55.35 69.6 55.35Z"
            class="cls-4" />
        <path
            d="M105.63 91.05c-1.25 0-2.43.3-3.48.83l-5.09-5.09v-4.82c6.57 1.31 12.05.9 14.67-4.91 5.33-11.82-12.69-11.66-12.69-28.46 0-14.25-12.38-27.66-27.66-27.66h-.06c-15.27 0-27.66 13.4-27.66 27.66 0 16.81-18.38 18.48-12.69 28.46 3.1 5.44 8.54 5.9 14.88 4.73v4.92l-5.09 5.09a7.828 7.828 0 0 0-3.48-.83c-4.32 0-7.83 3.5-7.83 7.83s3.5 7.83 7.83 7.83a7.823 7.823 0 0 0 7-11.33l5.81-5.81c.46-.47.73-1.1.73-1.75v-7.1c1.29-.34 2.6-.71 3.92-1.09.99-.28 1.99-.44 3-.51v12.45l-8.27 7.11c-.55.47-.86 1.16-.86 1.88v6.15c-3.11 1.04-5.35 3.96-5.35 7.42 0 4.32 3.5 7.83 7.83 7.83s7.83-3.5 7.83-7.83c0-3.46-2.24-6.38-5.35-7.42v-5.01l8.27-7.11c.55-.47.86-1.16.86-1.88V79.25c2.13.26 4.24.66 6.27.88v26.51a7.813 7.813 0 0 0-5.33 7.41c0 4.32 3.5 7.83 7.83 7.83s7.83-3.5 7.83-7.83c0-3.46-2.25-6.39-5.36-7.43V80.13c2.04-.21 4.16-.6 6.3-.85V92.7c0 .72.31 1.41.86 1.88l8.27 7.11v5.01c-3.11 1.04-5.35 3.97-5.35 7.42 0 4.32 3.5 7.83 7.83 7.83s7.83-3.5 7.83-7.83c0-3.46-2.24-6.38-5.35-7.42v-6.15c0-.72-.32-1.41-.86-1.88l-8.27-7.11V79.12c1.01.08 2.02.25 3.03.54 1.31.38 2.61.76 3.89 1.11v7.04c0 .66.26 1.29.73 1.75l5.81 5.81a7.749 7.749 0 0 0-.83 3.5c0 4.32 3.5 7.83 7.83 7.83s7.83-3.5 7.83-7.83-3.5-7.83-7.83-7.83ZM37.3 102.6c-2.09 0-3.8-1.7-3.8-3.8s1.7-3.8 3.8-3.8 3.8 1.7 3.8 3.8-1.7 3.8-3.8 3.8Zm17.59 11.45c0 2.09-1.7 3.8-3.8 3.8s-3.8-1.7-3.8-3.8 1.7-3.8 3.8-3.8 3.8 1.7 3.8 3.8Zm40.75.07c0 2.09-1.7 3.8-3.8 3.8s-3.8-1.7-3.8-3.8 1.7-3.8 3.8-3.8 3.8 1.7 3.8 3.8Zm-20.37-.07c0 2.09-1.7 3.8-3.8 3.8s-3.8-1.7-3.8-3.8 1.7-3.8 3.8-3.8 3.8 1.7 3.8 3.8Zm30.37-11.38c-2.09 0-3.8-1.7-3.8-3.8s1.7-3.8 3.8-3.8 3.8 1.7 3.8 3.8-1.7 3.8-3.8 3.8Z"
            class="cls-2" />
        <path
            d="M53.53 61.4c-3.22 0-5.84 2.61-5.84 5.84s2.61 5.84 5.84 5.84 5.84-2.61 5.84-5.84-2.61-5.84-5.84-5.84Z"
            class="cls-4" />
        <circle cx="87.88" cy="67.24" r="5.84" class="cls-4" />
    </g>
</svg>